<svg width="261" height="47" viewBox="0 0 261 47" fill="none" xmlns="http://www.w3.org/2000/svg">
<g filter="url(#filter0_d_2002_7)">
<path d="M55.7287 36.6488C53.4508 36.6488 51.3965 36.2523 49.5655 35.4594C47.749 34.6665 46.2497 33.5347 45.0675 32.0642C43.8998 30.5793 43.1573 28.8205 42.8402 26.7877L48.2464 25.966C48.7078 27.8113 49.652 29.2386 51.0793 30.2477C52.521 31.2569 54.1789 31.7615 56.053 31.7615C57.1631 31.7615 58.2083 31.5885 59.1887 31.2425C60.169 30.8965 60.9619 30.3919 61.5674 29.7287C62.1873 29.0656 62.4973 28.251 62.4973 27.2851C62.4973 26.8526 62.4252 26.4562 62.2811 26.0957C62.1369 25.7209 61.9206 25.3893 61.6323 25.101C61.3584 24.8127 60.998 24.5532 60.551 24.3225C60.1185 24.0774 59.614 23.8684 59.0373 23.6954L50.9928 21.3166C50.3008 21.1148 49.5511 20.8481 48.7438 20.5165C47.9509 20.1705 47.194 19.702 46.4732 19.1109C45.7668 18.5054 45.1829 17.7413 44.7215 16.8186C44.2746 15.8815 44.0512 14.7282 44.0512 13.3586C44.0512 11.3547 44.5558 9.67516 45.5649 8.32C46.5885 6.95041 47.9581 5.92683 49.6737 5.24925C51.4037 4.57166 53.3211 4.24008 55.4259 4.2545C57.5596 4.26891 59.4626 4.63654 61.1349 5.35737C62.8073 6.06379 64.2057 7.09458 65.3302 8.44975C66.4547 9.80492 67.2476 11.4412 67.7089 13.3586L62.1081 14.3317C61.8774 13.2361 61.4305 12.3062 60.7673 11.5421C60.1185 10.7636 59.3184 10.1725 58.3669 9.76887C57.4298 9.36521 56.4279 9.14896 55.361 9.12012C54.323 9.10571 53.3571 9.26429 52.4633 9.59587C51.5839 9.91304 50.8703 10.3744 50.3224 10.9799C49.789 11.5854 49.5223 12.2918 49.5223 13.0991C49.5223 13.8632 49.753 14.4903 50.2143 14.9805C50.6756 15.4562 51.2451 15.8383 51.9227 16.1266C52.6147 16.4005 53.3139 16.6312 54.0203 16.8186L59.5996 18.3756C60.3636 18.5775 61.2214 18.8514 62.1729 19.1974C63.1244 19.5434 64.0399 20.0263 64.9193 20.6462C65.7987 21.2662 66.5195 22.0807 67.0818 23.0899C67.6585 24.099 67.9468 25.3821 67.9468 26.9391C67.9468 28.5538 67.608 29.9738 66.9304 31.1992C66.2673 32.4102 65.3662 33.4194 64.2273 34.2267C63.0884 35.0341 61.7837 35.6396 60.3132 36.0433C58.8571 36.4469 57.3289 36.6488 55.7287 36.6488ZM73.0601 36V4.86H78.2717V36H73.0601ZM84.7494 36V4.86H89.442L100.211 26.9175L110.981 4.86H115.673V36H110.808V16.0401L101.249 36H99.1733L89.6367 16.0401V36H84.7494ZM121.748 36V4.86H134.615C134.918 4.86 135.307 4.87442 135.783 4.90325C136.259 4.91767 136.699 4.96092 137.102 5.033C138.904 5.30691 140.389 5.90521 141.557 6.82787C142.739 7.75054 143.611 8.91829 144.174 10.3311C144.75 11.7295 145.039 13.2865 145.039 15.0021C145.039 16.7033 144.75 18.2603 144.174 19.6731C143.597 21.0715 142.717 22.2321 141.535 23.1547C140.368 24.0774 138.89 24.6757 137.102 24.9496C136.699 25.0073 136.252 25.0505 135.761 25.0794C135.286 25.1082 134.904 25.1226 134.615 25.1226H126.96V36H121.748ZM126.96 20.257H134.399C134.687 20.257 135.012 20.2426 135.372 20.2137C135.733 20.1849 136.064 20.1272 136.367 20.0407C137.232 19.8245 137.91 19.4425 138.4 18.8946C138.904 18.3468 139.257 17.7269 139.459 17.0349C139.676 16.3429 139.784 15.6653 139.784 15.0021C139.784 14.339 139.676 13.6614 139.459 12.9694C139.257 12.263 138.904 11.6358 138.4 11.088C137.91 10.5402 137.232 10.1581 136.367 9.94187C136.064 9.85537 135.733 9.80492 135.372 9.7905C135.012 9.76167 134.687 9.74725 134.399 9.74725H126.96V20.257ZM149.371 36V4.86H169.482V9.74725H154.583V17.4241H166.887V22.3114H154.583V31.1127H169.482V36H149.371ZM174.671 36V4.86H184.596C184.856 4.86 185.368 4.86721 186.132 4.88162C186.91 4.89604 187.66 4.9465 188.381 5.033C190.846 5.35017 192.929 6.22958 194.63 7.67125C196.346 9.0985 197.644 10.9222 198.523 13.1424C199.402 15.3625 199.842 17.7917 199.842 20.43C199.842 23.0682 199.402 25.4975 198.523 27.7176C197.644 29.9378 196.346 31.7687 194.63 33.2104C192.929 34.6376 190.846 35.5098 188.381 35.827C187.674 35.9135 186.932 35.964 186.153 35.9784C185.375 35.9928 184.856 36 184.596 36H174.671ZM179.969 31.0911H184.596C185.029 31.0911 185.577 31.0767 186.24 31.0479C186.918 31.019 187.516 30.9542 188.035 30.8532C189.505 30.5793 190.702 29.9234 191.625 28.8854C192.547 27.8474 193.225 26.5859 193.657 25.101C194.104 23.6161 194.328 22.0591 194.328 20.43C194.328 18.7432 194.104 17.1574 193.657 15.6725C193.21 14.1876 192.518 12.9405 191.581 11.9314C190.659 10.9222 189.476 10.2807 188.035 10.0067C187.516 9.89142 186.918 9.82654 186.24 9.81212C185.577 9.78329 185.029 9.76887 184.596 9.76887H179.969V31.0911ZM201.947 36L211.765 4.86H219.398L229.216 36H223.853L214.943 8.0605H216.111L207.31 36H201.947ZM207.418 29.253V24.3874H223.766V29.253H207.418ZM243.807 36.6488C241.529 36.6488 239.475 36.2523 237.644 35.4594C235.827 34.6665 234.328 33.5347 233.146 32.0642C231.978 30.5793 231.236 28.8205 230.919 26.7877L236.325 25.966C236.786 27.8113 237.73 29.2386 239.158 30.2477C240.599 31.2569 242.257 31.7615 244.131 31.7615C245.242 31.7615 246.287 31.5885 247.267 31.2425C248.247 30.8965 249.04 30.3919 249.646 29.7287C250.266 29.0656 250.576 28.251 250.576 27.2851C250.576 26.8526 250.504 26.4562 250.359 26.0957C250.215 25.7209 249.999 25.3893 249.711 25.101C249.437 24.8127 249.076 24.5532 248.629 24.3225C248.197 24.0774 247.692 23.8684 247.116 23.6954L239.071 21.3166C238.379 21.1148 237.63 20.8481 236.822 20.5165C236.029 20.1705 235.272 19.702 234.552 19.1109C233.845 18.5054 233.261 17.7413 232.8 16.8186C232.353 15.8815 232.13 14.7282 232.13 13.3586C232.13 11.3547 232.634 9.67516 233.643 8.32C234.667 6.95041 236.036 5.92683 237.752 5.24925C239.482 4.57166 241.399 4.24008 243.504 4.2545C245.638 4.26891 247.541 4.63654 249.213 5.35737C250.886 6.06379 252.284 7.09458 253.409 8.44975C254.533 9.80492 255.326 11.4412 255.787 13.3586L250.186 14.3317C249.956 13.2361 249.509 12.3062 248.846 11.5421C248.197 10.7636 247.397 10.1725 246.445 9.76887C245.508 9.36521 244.506 9.14896 243.439 9.12012C242.401 9.10571 241.436 9.26429 240.542 9.59587C239.662 9.91304 238.949 10.3744 238.401 10.9799C237.867 11.5854 237.601 12.2918 237.601 13.0991C237.601 13.8632 237.831 14.4903 238.293 14.9805C238.754 15.4562 239.323 15.8383 240.001 16.1266C240.693 16.4005 241.392 16.6312 242.099 16.8186L247.678 18.3756C248.442 18.5775 249.3 18.8514 250.251 19.1974C251.203 19.5434 252.118 20.0263 252.998 20.6462C253.877 21.2662 254.598 22.0807 255.16 23.0899C255.737 24.099 256.025 25.3821 256.025 26.9391C256.025 28.5538 255.686 29.9738 255.009 31.1992C254.346 32.4102 253.445 33.4194 252.306 34.2267C251.167 35.0341 249.862 35.6396 248.392 36.0433C246.935 36.4469 245.407 36.6488 243.807 36.6488Z" fill="#4FE9A4"/>
<path d="M4 21H21.0678C25.9511 21 29.9099 24.9587 29.9099 29.8421C29.9099 34.7255 25.9511 38.6842 21.0678 38.6842H4V21Z" fill="#65E4A3"/>
<path d="M4 5.52637H15.3927C19.0552 5.52637 22.0243 8.49543 22.0243 12.1579C22.0243 15.8205 19.0552 18.7895 15.3927 18.7895H4V5.52637Z" fill="white"/>
</g>
<defs>
<filter id="filter0_d_2002_7" x="0" y="0" width="260.025" height="50" filterUnits="userSpaceOnUse" color-interpolation-filters="sRGB">
<feFlood flood-opacity="0" result="BackgroundImageFix"/>
<feColorMatrix in="SourceAlpha" type="matrix" values="0 0 0 0 0 0 0 0 0 0 0 0 0 0 0 0 0 0 127 0" result="hardAlpha"/>
<feOffset dy="4"/>
<feGaussianBlur stdDeviation="2"/>
<feComposite in2="hardAlpha" operator="out"/>
<feColorMatrix type="matrix" values="0 0 0 0 0 0 0 0 0 0 0 0 0 0 0 0 0 0 0.25 0"/>
<feBlend mode="normal" in2="BackgroundImageFix" result="effect1_dropShadow_2002_7"/>
<feBlend mode="normal" in="SourceGraphic" in2="effect1_dropShadow_2002_7" result="shape"/>
</filter>
</defs>
</svg>
